<?xml version="1.0" encoding="utf-8"?>
<!-- Generator: Adobe Illustrator 16.0.0, SVG Export Plug-In . SVG Version: 6.00 Build 0)  -->
<!DOCTYPE svg PUBLIC "-//W3C//DTD SVG 1.1//EN" "http://www.w3.org/Graphics/SVG/1.1/DTD/svg11.dtd">
<svg version="1.1" id="Calque_2" xmlns="http://www.w3.org/2000/svg" xmlns:xlink="http://www.w3.org/1999/xlink" x="0px" y="0px"
	 width="589.664px" height="197.857px" viewBox="0 0 589.664 197.857" enable-background="new 0 0 589.664 197.857"
	 xml:space="preserve">
<g>
	<path fill="#FFFFFF" d="M32.501,83.064c1.068-18.343,8.2-37.987,28.409-49.919c28.742-16.971,63.421-4.289,76.236,27.144
		c3.545,8.694,5.46,17.737,5.366,27.184c-0.021,2.264-0.571,3.603-2.953,4.431c-13.182,4.582-26.296,9.354-39.441,14.039
		c-1.321,0.471-3.006,1.732-3.959-0.036c-0.736-1.367,1.099-2.196,1.894-3.176c4.967-6.122,9.616-12.454,10.365-20.623
		c0.847-9.217-3.927-17.96-11.435-21.578c-6.862-3.307-15.287-1.979-20.864,3.291c-6.205,5.861-8.379,16.409-4.944,24.967
		c2.705,6.74,7.044,12.388,12.163,17.508c3.454,3.455,3.184,4.513-1.268,6.114c-10.314,3.717-20.632,7.438-30.988,11.037
		c-5.572,1.937-7.82,0.924-10.44-4.236C35.442,108.973,32.485,97.333,32.501,83.064z"/>
	<path fill="#FFFFFF" d="M142.335,92.599c-1.681,14.063-6.876,25.786-13.663,36.946c-10.485,17.239-24.245,31.645-38.895,45.307
		c-1.707,1.592-2.814,1.642-4.53,0.012c-9.903-9.405-19.718-18.887-28.022-29.788c-3.133-4.112-2.799-7.043,1.178-10.263
		c1.285-1.039,2.668-2.019,4.143-2.754c25.27-12.636,50.56-25.23,75.852-37.82C139.416,93.729,140.503,93.356,142.335,92.599z"/>
	<circle fill="#FFFFFF" cx="89.52" cy="79.816" r="5.844"/>
</g>
<g enable-background="new    ">
	<path fill="#FFFFFF" d="M229.367,117.618l-0.053-24.575l-12.182,20.338h-3.072L201.878,93.36v24.258h-6.568V80.543h5.667
		l14.724,24.575l14.459-24.575h5.667l0.053,37.075H229.367z"/>
	<path fill="#FFFFFF" d="M249.281,116.135c-2.296-1.235-4.087-2.956-5.376-5.164c-1.289-2.206-1.933-4.704-1.933-7.494
		c0-2.789,0.644-5.278,1.933-7.468c1.289-2.189,3.08-3.901,5.376-5.138c2.295-1.235,4.873-1.854,7.733-1.854
		c2.895,0,5.49,0.618,7.786,1.854c2.295,1.236,4.086,2.948,5.376,5.138c1.289,2.189,1.933,4.679,1.933,7.468
		c0,2.79-0.645,5.288-1.933,7.494c-1.29,2.208-3.081,3.929-5.376,5.164c-2.295,1.236-4.891,1.854-7.786,1.854
		C254.154,117.989,251.576,117.371,249.281,116.135z M263.052,109.885c1.589-1.624,2.383-3.761,2.383-6.409
		s-0.794-4.784-2.383-6.409c-1.589-1.623-3.602-2.436-6.038-2.436s-4.441,0.813-6.012,2.436c-1.571,1.625-2.357,3.761-2.357,6.409
		s0.786,4.785,2.357,6.409c1.571,1.624,3.575,2.436,6.012,2.436S261.463,111.51,263.052,109.885z"/>
	<path fill="#FFFFFF" d="M302.139,92.142c2.153,2.083,3.23,5.173,3.23,9.269v16.207h-6.62v-15.359c0-2.472-0.583-4.334-1.748-5.588
		c-1.165-1.253-2.825-1.881-4.979-1.881c-2.437,0-4.361,0.733-5.773,2.198c-1.413,1.466-2.119,3.575-2.119,6.329v14.301h-6.621
		V89.335h6.303v3.654c1.094-1.306,2.471-2.295,4.131-2.966c1.659-0.67,3.53-1.006,5.614-1.006
		C297.125,89.017,299.985,90.059,302.139,92.142z"/>
	<path fill="#FFFFFF" d="M350.786,82.132c2.384,1.06,4.21,2.578,5.481,4.555c1.271,1.979,1.907,4.326,1.907,7.045
		c0,2.684-0.636,5.023-1.907,7.018c-1.271,1.995-3.098,3.522-5.481,4.581c-2.384,1.06-5.183,1.589-8.396,1.589h-8.367v10.699h-6.887
		V80.543h15.254C345.604,80.543,348.403,81.072,350.786,82.132z M348.906,99.186c1.553-1.271,2.33-3.09,2.33-5.455
		s-0.777-4.185-2.33-5.456c-1.555-1.271-3.832-1.906-6.833-1.906h-8.05v14.724h8.05C345.074,101.093,347.352,100.458,348.906,99.186
		z"/>
	<path fill="#FFFFFF" d="M383.571,92.01c2.207,1.995,3.311,5.005,3.311,9.03v16.578h-6.25v-3.442
		c-0.813,1.236-1.969,2.181-3.469,2.833c-1.502,0.653-3.311,0.98-5.429,0.98s-3.973-0.363-5.562-1.086
		c-1.589-0.724-2.816-1.729-3.682-3.02c-0.865-1.288-1.297-2.745-1.297-4.369c0-2.542,0.944-4.581,2.834-6.117
		c1.889-1.536,4.863-2.305,8.924-2.305h7.31v-0.423c0-1.978-0.592-3.496-1.774-4.556c-1.184-1.059-2.939-1.589-5.27-1.589
		c-1.59,0-3.152,0.248-4.688,0.741c-1.537,0.495-2.834,1.184-3.894,2.066l-2.595-4.82c1.482-1.13,3.266-1.994,5.35-2.595
		c2.082-0.601,4.289-0.9,6.62-0.9C378.177,89.017,381.364,90.015,383.571,92.01z M377.533,112.03
		c1.288-0.759,2.197-1.845,2.728-3.257v-3.284h-6.833c-3.813,0-5.72,1.254-5.72,3.761c0,1.2,0.477,2.154,1.431,2.859
		c0.953,0.707,2.277,1.06,3.972,1.06C374.77,113.169,376.244,112.79,377.533,112.03z"/>
	<path fill="#FFFFFF" d="M410.768,89.017v6.303c-0.564-0.106-1.076-0.159-1.535-0.159c-2.578,0-4.591,0.751-6.038,2.251
		c-1.448,1.501-2.171,3.664-2.171,6.488v13.718h-6.621V89.335h6.303v4.131C402.612,90.5,405.966,89.017,410.768,89.017z"/>
	<path fill="#FFFFFF" d="M420.249,116.135c-2.331-1.235-4.149-2.956-5.456-5.164c-1.307-2.206-1.959-4.704-1.959-7.494
		c0-2.789,0.652-5.278,1.959-7.468s3.117-3.901,5.43-5.138c2.313-1.235,4.952-1.854,7.918-1.854c2.789,0,5.234,0.564,7.336,1.694
		c2.1,1.131,3.681,2.754,4.74,4.873l-5.084,2.966c-0.813-1.306-1.828-2.286-3.047-2.939c-1.217-0.653-2.551-0.979-3.998-0.979
		c-2.473,0-4.521,0.803-6.145,2.409c-1.624,1.607-2.436,3.753-2.436,6.436c0,2.684,0.803,4.829,2.41,6.436
		c1.605,1.606,3.662,2.409,6.17,2.409c1.447,0,2.781-0.325,3.998-0.979c1.219-0.653,2.233-1.633,3.047-2.939l5.084,2.966
		c-1.096,2.119-2.693,3.752-4.793,4.899c-2.102,1.147-4.529,1.722-7.283,1.722C425.209,117.989,422.58,117.371,420.249,116.135z"/>
	<path fill="#FFFFFF" d="M449.538,116.135c-2.296-1.235-4.087-2.956-5.376-5.164c-1.289-2.206-1.934-4.704-1.934-7.494
		c0-2.789,0.645-5.278,1.934-7.468s3.08-3.901,5.376-5.138c2.295-1.235,4.872-1.854,7.733-1.854c2.895,0,5.49,0.618,7.785,1.854
		c2.295,1.236,4.086,2.948,5.376,5.138c1.288,2.189,1.933,4.679,1.933,7.468c0,2.79-0.645,5.288-1.933,7.494
		c-1.29,2.208-3.081,3.929-5.376,5.164c-2.295,1.236-4.891,1.854-7.785,1.854C454.41,117.989,451.833,117.371,449.538,116.135z
		 M463.309,109.885c1.59-1.624,2.384-3.761,2.384-6.409s-0.794-4.784-2.384-6.409c-1.588-1.623-3.602-2.436-6.037-2.436
		c-2.438,0-4.441,0.813-6.012,2.436c-1.572,1.625-2.357,3.761-2.357,6.409s0.785,4.785,2.357,6.409
		c1.57,1.624,3.574,2.436,6.012,2.436C459.707,112.321,461.721,111.51,463.309,109.885z"/>
	<path fill="#FFFFFF" d="M505.151,89.335v28.283h-6.303v-3.602c-1.059,1.271-2.383,2.251-3.971,2.939
		c-1.59,0.688-3.303,1.033-5.139,1.033c-3.779,0-6.754-1.051-8.925-3.151c-2.172-2.101-3.257-5.218-3.257-9.349V89.335h6.62v15.254
		c0,2.542,0.573,4.44,1.722,5.693c1.146,1.254,2.781,1.881,4.898,1.881c2.365,0,4.246-0.732,5.641-2.198
		c1.395-1.465,2.094-3.575,2.094-6.329V89.335H505.151z"/>
	<path fill="#FFFFFF" d="M529.25,89.017v6.303c-0.566-0.106-1.078-0.159-1.537-0.159c-2.576,0-4.59,0.751-6.037,2.251
		c-1.449,1.501-2.172,3.664-2.172,6.488v13.718h-6.621V89.335h6.303v4.131C521.094,90.5,524.448,89.017,529.25,89.017z"/>
	<path fill="#FFFFFF" d="M536.03,117.089c-2.189-0.601-3.938-1.359-5.244-2.277l2.543-5.032c1.271,0.848,2.797,1.527,4.582,2.039
		c1.781,0.513,3.539,0.769,5.27,0.769c3.953,0,5.932-1.041,5.932-3.125c0-0.988-0.504-1.677-1.51-2.066
		c-1.006-0.388-2.621-0.759-4.846-1.111c-2.33-0.353-4.229-0.76-5.693-1.219c-1.467-0.458-2.738-1.262-3.814-2.41
		c-1.076-1.146-1.615-2.745-1.615-4.793c0-2.683,1.121-4.828,3.363-6.436c2.242-1.605,5.27-2.409,9.084-2.409
		c1.941,0,3.883,0.221,5.826,0.662c1.941,0.441,3.529,1.032,4.766,1.773l-2.541,5.032c-2.402-1.412-5.104-2.119-8.104-2.119
		c-1.943,0-3.416,0.292-4.424,0.874c-1.006,0.583-1.508,1.351-1.508,2.305c0,1.059,0.537,1.81,1.615,2.251
		c1.076,0.441,2.744,0.856,5.004,1.244c2.26,0.354,4.113,0.76,5.563,1.219c1.447,0.459,2.691,1.236,3.732,2.33
		c1.041,1.095,1.563,2.648,1.563,4.661c0,2.648-1.146,4.767-3.441,6.355c-2.297,1.589-5.422,2.384-9.375,2.384
		C540.459,117.989,538.219,117.688,536.03,117.089z"/>
</g>
</svg>
