<svg xmlns="http://www.w3.org/2000/svg" viewBox="0 0 422.32 399.91"><defs><style>.cls-1{fill:#fff;}</style></defs><title>rosace</title><g id="Calque_2" data-name="Calque 2"><g id="Calque_1-2" data-name="Calque 1"><g id="YSsG4T.tif"><path class="cls-1" d="M282.73,43.94a7,7,0,0,1,0,13.94A6.73,6.73,0,0,1,275.83,51,6.87,6.87,0,0,1,282.73,43.94Z"/><path class="cls-1" d="M254.61,343.94a7,7,0,0,1-7.05,6.9,7,7,0,0,1-6.67-6.78,6.86,6.86,0,1,1,13.72-.12Z"/><path class="cls-1" d="M86.76,173.64a7.22,7.22,0,0,1-7,7.06c-3.56,0-6.94-3.69-6.8-7.31a7.44,7.44,0,0,1,6.8-6.81A7.21,7.21,0,0,1,86.76,173.64Z"/><path class="cls-1" d="M36.73,234.16a6.71,6.71,0,0,1,7,6.86c0,3.72-3.42,7.12-7.1,6.85-4.06-.3-6.38-2.67-6.64-6.72A6.54,6.54,0,0,1,36.73,234.16Z"/><path class="cls-1" d="M319.07,312.71a6.81,6.81,0,0,1,6.7,7.16,6.85,6.85,0,1,1-6.7-7.16Z"/><path class="cls-1" d="M323,259.47a6.78,6.78,0,0,1-7.15,6.69c-3.75-.18-7-3.63-6.57-7.32.44-4.07,3-6.25,7-6.47S323.15,255.57,323,259.47Z"/><path class="cls-1" d="M78.7,97.89a6.72,6.72,0,0,1,7,6.86c0,3.78-3.27,7.15-7,6.89-4-.28-6.35-2.7-6.69-6.69A6.66,6.66,0,0,1,78.7,97.89Z"/><path class="cls-1" d="M150,73a7,7,0,0,1-7-7,6.78,6.78,0,0,1,7.1-6.75c4.27.12,6.28,2.71,6.59,6.65A6.69,6.69,0,0,1,150,73Z"/><path class="cls-1" d="M271.93,192.29a6.87,6.87,0,1,1-6.72,7.19A7,7,0,0,1,271.93,192.29Z"/><path class="cls-1" d="M199.23,102.6a7,7,0,0,1,.29-14,7,7,0,0,1-.29,14Z"/><path class="cls-1" d="M107.3,267.11a6.51,6.51,0,0,1-6.58-7.14c.37-4,2.53-6.45,6.7-6.61a6.88,6.88,0,1,1-.12,13.75Z"/><path class="cls-1" d="M240.74,168a6.82,6.82,0,0,1-6.81-7.05,7,7,0,0,1,7.28-6.6c4.11.33,6.27,2.81,6.46,6.81A6.59,6.59,0,0,1,240.74,168Z"/><path class="cls-1" d="M172.75,310.63a6.89,6.89,0,0,1-13.77,0,7.24,7.24,0,0,1,6.91-7.11A7.08,7.08,0,0,1,172.75,310.63Z"/><path class="cls-1" d="M311.41,154.56a6.84,6.84,0,0,1-7.27,6.56,6.39,6.39,0,0,1-6.37-7.24c.36-4.08,2.73-6.32,6.8-6.43A7.06,7.06,0,0,1,311.41,154.56Z"/><path class="cls-1" d="M386.05,215.83a7.16,7.16,0,0,1,7.59-6.33,6.75,6.75,0,0,1,6,7.69c-.54,4.09-3,6.11-7.16,5.94A6.62,6.62,0,0,1,386.05,215.83Z"/><path class="cls-1" d="M112.72,304a7,7,0,0,1-7,6.89A7.2,7.2,0,0,1,99,303.58a6.82,6.82,0,0,1,6.83-6.53A6.74,6.74,0,0,1,112.72,304Z"/><path class="cls-1" d="M181.5,179.55a6.72,6.72,0,0,1-6.82-6.43c-.24-4.08,2.39-7.22,6.29-7.47a7,7,0,1,1,.53,13.9Z"/><path class="cls-1" d="M288.31,373.72a7.21,7.21,0,0,1-6.83-7.17,6.94,6.94,0,0,1,7.12-6.74c4,.13,6.5,3,6.33,7.29A6.65,6.65,0,0,1,288.31,373.72Z"/><path class="cls-1" d="M270.13,268.14a6.75,6.75,0,0,1-7.2,6.62c-4.09-.38-6.22-3-6.45-6.9-.22-3.75,3.17-6.91,7-6.86A6.79,6.79,0,0,1,270.13,268.14Z"/><path class="cls-1" d="M204.77,216a6.74,6.74,0,0,1-6.83,7,6.87,6.87,0,0,1-.17-13.74A6.66,6.66,0,0,1,204.77,216Z"/><path class="cls-1" d="M202,254.21a6.89,6.89,0,0,1,6.92-7c4.08.17,6.41,2.48,6.78,6.5a6.68,6.68,0,0,1-6.55,7.23A7.07,7.07,0,0,1,202,254.21Z"/><path class="cls-1" d="M138.21,209.44a6.86,6.86,0,0,1-7,6.81,6.48,6.48,0,0,1-6.59-6.59,6.75,6.75,0,0,1,6.62-7.18A7.11,7.11,0,0,1,138.21,209.44Z"/><path class="cls-1" d="M251.75,280.35a6.5,6.5,0,0,1-7,6.67c-3.62-.12-7.06-3.71-6.6-7.25.52-3.94,3-6.25,7-6.46S251.86,276.31,251.75,280.35Z"/><path class="cls-1" d="M212.26,314a6.51,6.51,0,0,1,6.59,7.08c-.2,4.2-2.74,6.31-6.65,6.61a6.8,6.8,0,0,1-7-6.87A7,7,0,0,1,212.26,314Z"/><path class="cls-1" d="M286.94,134.37a7.39,7.39,0,0,1,7.17-6.9c3.24,0,6.45,3.5,6.52,7s-3.33,7.18-6.87,7.16C290.37,141.6,286.93,137.93,286.94,134.37Z"/><path class="cls-1" d="M365.85,130.43c0,4.08-2.81,7-6.81,6.84s-6.36-2.59-6.72-6.55c-.33-3.62,3.11-7.14,6.72-7.28C362.81,123.29,365.82,126.39,365.85,130.43Z"/><path class="cls-1" d="M24.53,154.39a7.17,7.17,0,0,1-7.62,6.37A7.16,7.16,0,0,1,11,153.27c.25-3.94,3.45-6.5,7.6-6.08A6.43,6.43,0,0,1,24.53,154.39Z"/><path class="cls-1" d="M308.49,14.5c.09,3.47-3.44,7.14-6.86,7.14A7.1,7.1,0,0,1,294.85,15a6.83,6.83,0,1,1,13.64-.5Z"/><path class="cls-1" d="M342.51,129a6.55,6.55,0,0,1-6.76-6.54c-.16-4.11,2.68-7.17,6.63-7.14,3.56,0,7,3.17,7.06,6.48A7.35,7.35,0,0,1,342.51,129Z"/><path class="cls-1" d="M119.86,91.16a6.61,6.61,0,0,1,6.75,7,6.87,6.87,0,0,1-13.73-.26A6.59,6.59,0,0,1,119.86,91.16Z"/><path class="cls-1" d="M256.57,370.85c-.14,4.09-3,6.54-7.32,6.33a6.35,6.35,0,0,1-6.3-6.87,7.3,7.3,0,0,1,6.88-6.72A7,7,0,0,1,256.57,370.85Z"/><path class="cls-1" d="M262.71,215a7.09,7.09,0,0,1-6.37,6.94,6.86,6.86,0,1,1-.54-13.71A6.55,6.55,0,0,1,262.71,215Z"/><path class="cls-1" d="M320.56,75.87a7.43,7.43,0,0,1-6.57,7c-3.59.17-7.05-3.21-7.12-7a6.85,6.85,0,0,1,13.69,0Z"/><path class="cls-1" d="M140.44,357.09a6.73,6.73,0,0,1-6.64-7.1c.1-3.46,3.31-6.72,6.62-6.74a7.44,7.44,0,0,1,7.1,6.91C147.53,353.66,144,357.08,140.44,357.09Z"/><path class="cls-1" d="M36.64,222.67c-.09,3.76-2.89,6.39-6.84,6.41A6.47,6.47,0,0,1,23,222.14a7.22,7.22,0,0,1,7.35-6.69C33.66,215.65,36.72,219.14,36.64,222.67Z"/><path class="cls-1" d="M293.69,346.19c-.05,3.51-3.26,6.81-6.64,6.8a6.89,6.89,0,1,1-.22-13.78A6.62,6.62,0,0,1,293.69,346.19Z"/><path class="cls-1" d="M256,131.75c.19-3.72,3.72-7,7.39-6.55,4.11.44,6.25,2.87,6.23,7,0,3.63-3.73,7-7.24,6.74S255.85,135.08,256,131.75Z"/><path class="cls-1" d="M108.71,193.32a6.88,6.88,0,0,1,7,6.92,6.84,6.84,0,1,1-7-6.92Z"/><path class="cls-1" d="M321.67,198.7a6.66,6.66,0,0,1-6.81,6.52,6.74,6.74,0,0,1-6.94-6.9,6.88,6.88,0,1,1,13.75.38Z"/><path class="cls-1" d="M33,263.23a6.49,6.49,0,0,1,6.81,6.95,6.69,6.69,0,0,1-6.58,6.76,7,7,0,0,1-6.95-7A6.92,6.92,0,0,1,33,263.23Z"/><path class="cls-1" d="M100.56,336.65c.06,3.6-3,7-6.33,7.18a7.11,7.11,0,0,1-7.29-6.75,6.63,6.63,0,0,1,6.87-6.93A6.48,6.48,0,0,1,100.56,336.65Z"/><path class="cls-1" d="M104.62,235.87c0,3.65-3.57,7.21-7.05,7.09a7.53,7.53,0,0,1-6.66-7,6.71,6.71,0,0,1,7-6.86A6.86,6.86,0,0,1,104.62,235.87Z"/><path class="cls-1" d="M332.51,236.41c-.37,3.76-4,6.83-7.62,6.4-3.36-.41-6.2-4-6-7.53a6.63,6.63,0,0,1,7.57-6.16A6.79,6.79,0,0,1,332.51,236.41Z"/><path class="cls-1" d="M119.47,237.3a6.84,6.84,0,0,1,0,13.68c-4,0-6.76-2.92-6.62-7.09A6.45,6.45,0,0,1,119.47,237.3Z"/><path class="cls-1" d="M47.55,263.92a7.05,7.05,0,0,1-6.77-6.63,6.46,6.46,0,0,1,6.67-7.08c3.51,0,6.89,3.1,7,6.48A7.26,7.26,0,0,1,47.55,263.92Z"/><path class="cls-1" d="M214.85,157.53a6.72,6.72,0,0,1,6.89-6.46,7,7,0,0,1,6.82,7.16c-.15,3.36-3.67,6.74-6.95,6.68C218.1,164.84,214.73,161.17,214.85,157.53Z"/><path class="cls-1" d="M328.76,37.86c.06-4,2.65-6.67,6.48-6.71s7.24,3.29,7.14,6.84-3.32,6.87-6.67,6.93A7.28,7.28,0,0,1,328.76,37.86Z"/><path class="cls-1" d="M322.92,286.13a6.64,6.64,0,0,1-7-6.87,7.37,7.37,0,0,1,6.63-6.94c3.54-.12,7,3.37,7,7.09A6.81,6.81,0,0,1,322.92,286.13Z"/><path class="cls-1" d="M186.39,324a6.49,6.49,0,0,1-6.64-6.64c-.13-4.1,2.75-7.18,6.66-7.1a6.87,6.87,0,1,1,0,13.74Z"/><path class="cls-1" d="M297.66,324a7,7,0,0,1-6.84-7.11,7.18,7.18,0,0,1,6.84-6.66,6.89,6.89,0,1,1,0,13.77Z"/><path class="cls-1" d="M125.8,73.29a7.17,7.17,0,0,1,6.65,7.33c-.16,3.29-3.77,6.52-7.1,6.38a7.16,7.16,0,0,1-6.57-6.88A6.72,6.72,0,0,1,125.8,73.29Z"/><path class="cls-1" d="M175.06,34.93c-3.71,0-7.17-3.41-7.09-7a7.33,7.33,0,0,1,6.78-6.71,6.73,6.73,0,0,1,6.94,6.92A7.11,7.11,0,0,1,175.06,34.93Z"/><path class="cls-1" d="M263.31,296a7,7,0,0,1-7.07-6.93,7.16,7.16,0,0,1,6.68-6.84c3.9-.15,6.85,2.85,6.83,7C269.74,293.16,267.06,296,263.31,296Z"/><path class="cls-1" d="M302.77,209.06a6.54,6.54,0,0,1-6.31,6.95,7.11,7.11,0,0,1-7.23-6.77,7.28,7.28,0,0,1,7.08-7A6.51,6.51,0,0,1,302.77,209.06Z"/><path class="cls-1" d="M280.53,22.09a6.63,6.63,0,0,1,7,6.79,6.84,6.84,0,1,1-13.67-.15A6.54,6.54,0,0,1,280.53,22.09Z"/><path class="cls-1" d="M233.87,297.83c0-3.32,3.35-6.63,6.8-6.71a6.73,6.73,0,0,1,6.93,6.93,7.46,7.46,0,0,1-6.72,6.87C237.36,305,233.88,301.5,233.87,297.83Z"/><path class="cls-1" d="M106.72,281.53a6.67,6.67,0,0,1-6.79,6.54,6.88,6.88,0,1,1-.08-13.75A7.38,7.38,0,0,1,106.72,281.53Z"/><path class="cls-1" d="M87.67,355.12a6.56,6.56,0,0,1,7,6.82,7.27,7.27,0,0,1-6.5,7c-3.57.19-7-3.16-7.06-7A7.06,7.06,0,0,1,87.67,355.12Z"/><path class="cls-1" d="M231.55,33a7.2,7.2,0,0,1-7,7,7.07,7.07,0,0,1-6.65-6.77A6.83,6.83,0,1,1,231.55,33Z"/><path class="cls-1" d="M86.73,200.12c-.07,3.5-3.29,6.82-6.61,6.84a7.11,7.11,0,0,1-6.92-7.08,6.93,6.93,0,0,1,6.69-6.71A6.6,6.6,0,0,1,86.73,200.12Z"/><path class="cls-1" d="M141.81,315.74a6.62,6.62,0,0,1,6.73-6.59c3.7.09,7.11,3.56,7,7.11-.12,3.31-3.67,6.78-6.89,6.74A7.42,7.42,0,0,1,141.81,315.74Z"/><path class="cls-1" d="M186.7,297.37a6.56,6.56,0,0,1-6.59,6.7c-3.69,0-7.16-3.41-7.11-7a7.36,7.36,0,0,1,6.78-6.79A7.19,7.19,0,0,1,186.7,297.37Z"/><path class="cls-1" d="M376.93,245.19a6.64,6.64,0,0,1,6.73,6.59,6.85,6.85,0,1,1-13.7.44A7.26,7.26,0,0,1,376.93,245.19Z"/><path class="cls-1" d="M284.71,252a7.13,7.13,0,0,1-6.83,7.13,6.88,6.88,0,1,1,.06-13.75A7,7,0,0,1,284.71,252Z"/><path class="cls-1" d="M54.35,177c-3.8.06-7.42-3.24-7-6.89s2.49-6.53,6.66-6.81c3.86-.27,6.84,2.85,6.79,6.91A6.5,6.5,0,0,1,54.35,177Z"/><path class="cls-1" d="M268,239.05a7.08,7.08,0,0,1-7.06-6.86,7.31,7.31,0,0,1,6.6-6.87c3.52-.16,7,3.25,7.09,7A7.1,7.1,0,0,1,268,239.05Z"/><path class="cls-1" d="M10.35,166.28c4,0,6.63,3,6.51,7.17A6.35,6.35,0,0,1,10.25,180a6.32,6.32,0,0,1-6.53-6.59C3.7,169.19,6.44,166.25,10.35,166.28Z"/><path class="cls-1" d="M295.67,232.94c-.08,3.48-3.37,6.92-6.64,6.94a7.44,7.44,0,0,1-7.11-7c0-3.55,3.59-6.94,7.23-6.76A6.8,6.8,0,0,1,295.67,232.94Z"/><path class="cls-1" d="M257.05,240.31c3.8.4,6.79,4,6.1,7.71-.74,3.89-3,6.31-7.25,6a6.58,6.58,0,0,1-6.12-7.59C250.18,243,253.74,240,257.05,240.31Z"/><path class="cls-1" d="M220.52,308.82c-3.68-.11-7-3.6-6.68-7.24.35-4.09,2.64-6.35,6.8-6.43a6.84,6.84,0,1,1-.12,13.67Z"/><path class="cls-1" d="M48.06,196.18a7,7,0,0,1-7-6.88,7.24,7.24,0,0,1,6.6-6.91c3.58-.11,6.92,3.27,7,7.06A6.53,6.53,0,0,1,48.06,196.18Z"/><path class="cls-1" d="M150.7,371.44a6.57,6.57,0,0,1-6.64,6.66,6.9,6.9,0,1,1,6.64-6.66Z"/><path class="cls-1" d="M411.65,244.54a6.36,6.36,0,0,1-6.47,6.72c-4.2.07-7.24-2.69-7.25-6.58,0-3.45,3.74-7.15,7.11-7.05A7.14,7.14,0,0,1,411.65,244.54Z"/><path class="cls-1" d="M181.87,342.2a6.59,6.59,0,0,1,6.92,6.87c0,3.51-3.16,6.84-6.53,6.9a6.89,6.89,0,0,1-.39-13.77Z"/><path class="cls-1" d="M175.58,129a7.28,7.28,0,0,1-6.73-7.28,7.14,7.14,0,0,1,7-6.41,6.85,6.85,0,1,1-.26,13.69Z"/><path class="cls-1" d="M110.77,61.84a6.72,6.72,0,0,1,7.17-6.67,7.46,7.46,0,0,1,6.58,6.94c0,3.52-3.7,6.92-7.31,6.75A7.14,7.14,0,0,1,110.77,61.84Z"/><path class="cls-1" d="M128.83,118.64c.1,4.21-2.59,7.26-6.45,7.32s-6.64-3-6.66-7.13c0-4.38,2.6-6.29,6.53-6.63S128.74,114.62,128.83,118.64Z"/><path class="cls-1" d="M85.34,293.2A6.88,6.88,0,1,1,85.78,307a7.23,7.23,0,0,1-7-7A6.57,6.57,0,0,1,85.34,293.2Z"/><path class="cls-1" d="M304.39,306.08c-4,.08-6.58-2.37-6.7-6.37-.14-4.24,2.49-7.28,6.37-7.37s6.74,3,6.74,7.07S308.36,306,304.39,306.08Z"/><path class="cls-1" d="M94.63,68.25a6.61,6.61,0,0,1-6.9,6.91,7.19,7.19,0,0,1-6.67-6.82c0-3.51,3.16-6.88,6.53-7C91.13,61.15,94.63,64.6,94.63,68.25Z"/><path class="cls-1" d="M253.16,75.14a7.49,7.49,0,0,1-7.14-7,7.5,7.5,0,0,1,6.74-6.87,7.23,7.23,0,0,1,6.94,7.07A6.62,6.62,0,0,1,253.16,75.14Z"/><path class="cls-1" d="M162.88,361a7.12,7.12,0,0,1-7-6.44,6.88,6.88,0,1,1,7,6.44Z"/><path class="cls-1" d="M210,131.34c3.6.4,6.73,4.28,6.08,7.78-.74,4-3.33,6.06-7.39,5.86s-6.42-3.42-5.94-7.62A6.76,6.76,0,0,1,210,131.34Z"/><path class="cls-1" d="M166.66,111.26a6.64,6.64,0,0,1-7.07,6.76,7.32,7.32,0,0,1-6.63-6.86c0-3.53,3.57-7,7.2-6.89C163.42,104.33,166.7,107.86,166.66,111.26Z"/><path class="cls-1" d="M155,393.07a7.13,7.13,0,0,1,7-6.92,6.5,6.5,0,0,1,6.64,6.62c0,3.68-3.43,7.2-6.94,7.14A7.39,7.39,0,0,1,155,393.07Z"/><path class="cls-1" d="M256.37,332a6.87,6.87,0,1,1,7.26-6.15A7.2,7.2,0,0,1,256.37,332Z"/><path class="cls-1" d="M84.84,137.2a6.5,6.5,0,0,1,6.84,6.41,7.37,7.37,0,0,1-6.78,7.28c-3.29.07-6.81-3.3-6.94-6.63A7.09,7.09,0,0,1,84.84,137.2Z"/><path class="cls-1" d="M141.58,384.16a6.88,6.88,0,0,1,6.67,6.73,7,7,0,0,1-6.91,7.05,7.05,7.05,0,0,1-6.6-6.8A6.64,6.64,0,0,1,141.58,384.16Z"/><path class="cls-1" d="M85.2,212.76a6.87,6.87,0,0,1,7.36-6.51c4.15.46,6.18,3,6.17,7.06a6.77,6.77,0,1,1-13.53-.55Z"/><path class="cls-1" d="M240.66,359.36a6.87,6.87,0,0,1-13.73.22,6.87,6.87,0,1,1,13.73-.22Z"/><path class="cls-1" d="M284.76,148c0,3.5-3.12,6.84-6.48,6.92a7,7,0,0,1-7-6.93,6.94,6.94,0,0,1,6.57-6.81A6.53,6.53,0,0,1,284.76,148Z"/><path class="cls-1" d="M342.81,329c0,4.2-2.83,7.16-6.7,7.05s-6.55-3.18-6.44-7.34a6.49,6.49,0,0,1,6.74-6.45A6.34,6.34,0,0,1,342.81,329Z"/><path class="cls-1" d="M196.8,40.59c.1,3.88-2.93,7.26-6.54,7.3s-6.42-2.75-6.6-6.65c-.19-4.18,2.46-7.05,6.53-7.09S196.7,36.55,196.8,40.59Z"/><path class="cls-1" d="M335.67,209.73a6.49,6.49,0,0,1-6.87,6.34A7.19,7.19,0,0,1,322,209c.15-3.56,3.86-6.78,7.48-6.51C332.79,202.73,335.78,206.23,335.67,209.73Z"/><path class="cls-1" d="M113.78,351.24a6.68,6.68,0,0,1-6.56,6.75,7.18,7.18,0,0,1-7-7.07,7,7,0,0,1,7.29-6.66C111.3,344.45,113.84,347.29,113.78,351.24Z"/><path class="cls-1" d="M242.75,80.85c.12,3.62-3.29,7.35-6.84,7.11-4-.29-6.28-2.86-6.77-6.75-.43-3.38,3.33-7,7-7.06A6.79,6.79,0,0,1,242.75,80.85Z"/><path class="cls-1" d="M48,203.08a6.56,6.56,0,0,1,6.73,7c-.08,3.42-3.43,6.78-6.71,6.73a7.22,7.22,0,0,1-6.86-7.2A7.11,7.11,0,0,1,48,203.08Z"/><path class="cls-1" d="M252.7,230.52c.11,3.5-2.93,7-6.25,7.25a7.35,7.35,0,0,1-7.48-6.54,7.13,7.13,0,0,1,6.86-7.07A6.47,6.47,0,0,1,252.7,230.52Z"/><path class="cls-1" d="M101.86,190c.08,4.17-2.65,7.05-6.63,7a6.45,6.45,0,0,1-6.51-6.69,6.55,6.55,0,0,1,6.19-7A6.46,6.46,0,0,1,101.86,190Z"/><path class="cls-1" d="M402.86,195.11c0,4.2-2.75,7-6.75,6.9a6.52,6.52,0,0,1-6.4-6.84,6.65,6.65,0,0,1,6.35-6.93C400,188.11,402.85,191,402.86,195.11Z"/><path class="cls-1" d="M212,359c-3.88-.15-6.48-3.22-6.31-7.45a6.57,6.57,0,1,1,13.13.51C218.8,356.25,215.94,359.15,212,359Z"/><path class="cls-1" d="M331.09,57.11c3.44.25,6.54,3.76,6.28,7.11-.29,3.78-3.83,6.93-7.42,6.59a7.2,7.2,0,0,1-6.17-7.26A6.6,6.6,0,0,1,331.09,57.11Z"/><path class="cls-1" d="M219.73,338c-.09-4,2.33-6.67,6.26-6.81a7,7,0,0,1,7.27,6.62c.09,3.14-3.42,7-6.49,7.13C223.26,345.06,219.82,341.67,219.73,338Z"/><path class="cls-1" d="M374.69,198.24a7.19,7.19,0,0,1,6.84,7.08,7.1,7.1,0,0,1-6.9,6.55,7,7,0,0,1-6.76-6.61A7,7,0,0,1,374.69,198.24Z"/><path class="cls-1" d="M209.41,205.1a6.53,6.53,0,0,1-6.67-6.6,6.65,6.65,0,0,1,6.6-7.24c3.18-.11,6.71,3.3,6.92,6.67C216.49,201.54,213.15,205,209.41,205.1Z"/><path class="cls-1" d="M32.72,201.24a6.75,6.75,0,0,1-6.43,6.93c-3.62.13-7.46-3.36-7.18-6.84.3-3.94,2.52-6.52,6.52-7C29.12,193.93,32.7,197.6,32.72,201.24Z"/><path class="cls-1" d="M53.89,237.86a7.26,7.26,0,0,1-7-7,6.53,6.53,0,0,1,6.5-6.68c4.29-.07,6.43,2.5,7,6.29S57.49,237.78,53.89,237.86Z"/><path class="cls-1" d="M165.66,199.21A7.12,7.12,0,0,1,159,206a6.87,6.87,0,1,1,.2-13.73A7.08,7.08,0,0,1,165.66,199.21Z"/><path class="cls-1" d="M14.45,214.11a7.28,7.28,0,0,1-7,7,6.53,6.53,0,0,1-6.62-6.64,7.28,7.28,0,0,1,6.31-7.13A7.27,7.27,0,0,1,14.45,214.11Z"/><path class="cls-1" d="M278.87,114.31c3.24-.06,6.63,3.35,6.71,6.75A7.2,7.2,0,0,1,279.1,128c-3.73.18-7.24-3-7.22-6.63A7.32,7.32,0,0,1,278.87,114.31Z"/><path class="cls-1" d="M221.64,21.91c-3.69,0-7.08-3.43-6.81-7.09.31-4.05,2.63-6.35,6.7-6.58,3.36-.18,6.84,3.17,6.93,6.47C228.57,18.42,225.24,21.94,221.64,21.91Z"/><path class="cls-1" d="M149.74,124a7.06,7.06,0,0,1-7,6.88,6.87,6.87,0,0,1-6.55-6.83,7,7,0,0,1,6.57-6.81A6.62,6.62,0,0,1,149.74,124Z"/><path class="cls-1" d="M322.49,110c4.18-.08,7.1,2.62,7.09,6.57a6.69,6.69,0,0,1-6.69,6.59c-4.12.15-7-2.6-7-6.62A6.38,6.38,0,0,1,322.49,110Z"/><path class="cls-1" d="M380.86,116.28c0,4.28-2.46,6.38-6.43,6.68s-6.73-3-6.67-7a6.54,6.54,0,0,1,6.54-6.71C378.25,109.17,380.92,112.05,380.86,116.28Z"/><path class="cls-1" d="M78.59,282.2a6.67,6.67,0,0,1-6.69-6.61c0-3.9,2.92-6.64,7.07-6.58s6.9,3,6.65,6.95A6.63,6.63,0,0,1,78.59,282.2Z"/><path class="cls-1" d="M155.14,20.22a6.41,6.41,0,0,1,6.66,6.49c.1,4.18-2.59,7.21-6.46,7.27s-6.67-2.89-6.66-7.06A6.42,6.42,0,0,1,155.14,20.22Z"/><path class="cls-1" d="M248.83,27.61a6.44,6.44,0,0,1-6.72,6.44c-4-.07-6.56-2.92-6.41-7.19a6.37,6.37,0,0,1,6.59-6.55C246,20.33,248.91,23.6,248.83,27.61Z"/><path class="cls-1" d="M114.91,384.91a6.78,6.78,0,0,1,6.6-6.73,7.19,7.19,0,0,1,7.06,6.91A7.43,7.43,0,0,1,121.9,392C118.4,392.08,115,388.61,114.91,384.91Z"/><path class="cls-1" d="M208.65,384.38a7.18,7.18,0,0,1-7.25,6.69A7.32,7.32,0,0,1,195,384a7.41,7.41,0,0,1,6.8-6.74A7.29,7.29,0,0,1,208.65,384.38Z"/><path class="cls-1" d="M178.48,109a6.76,6.76,0,0,1-6.62-6.73,7.24,7.24,0,0,1,7-7,7.4,7.4,0,0,1,6.74,6.8A7.31,7.31,0,0,1,178.48,109Z"/><path class="cls-1" d="M306.85,281.3c0,2.92-2.73,5.77-6.71,5.69a6.57,6.57,0,0,1-6.45-6.8c-.05-4.09,2.88-7.21,6.79-6.9S306.9,275.72,306.85,281.3Z"/><path class="cls-1" d="M168,148.05a6.71,6.71,0,0,1,6.66,6.69c0,3.65-3.62,7.3-7,7.09a7.38,7.38,0,0,1-6.7-7.39A6.84,6.84,0,0,1,168,148.05Z"/><path class="cls-1" d="M124.8,160.23a6.56,6.56,0,0,1-13.11.49c-.14-4.28,2.39-7.25,6.29-7.41S124.73,156.05,124.8,160.23Z"/><path class="cls-1" d="M103.77,382.06a7,7,0,0,1-6.89-7,7.18,7.18,0,0,1,6.68-6.76,6.89,6.89,0,0,1,.21,13.77Z"/><path class="cls-1" d="M86.59,248.16a6.88,6.88,0,0,1,6.73,6.64,7,7,0,0,1-6.79,7.09,7.19,7.19,0,0,1-6.68-6.74A6.53,6.53,0,0,1,86.59,248.16Z"/><path class="cls-1" d="M22.84,180.14a7.09,7.09,0,0,1,7-6.9A7.33,7.33,0,0,1,36.56,180c.06,3.57-3.54,7.11-7.08,6.95A7.21,7.21,0,0,1,22.84,180.14Z"/><path class="cls-1" d="M312.74,170.22c3.44.09,6.78,3.45,6.68,6.71-.12,3.69-3.74,7.41-7.12,6.92-3.82-.55-6.45-2.65-6.51-6.87A6.47,6.47,0,0,1,312.74,170.22Z"/><path class="cls-1" d="M185.56,251.65a7.12,7.12,0,0,1-6.58-7.37,6.86,6.86,0,0,1,13.69.49A7.15,7.15,0,0,1,185.56,251.65Z"/><path class="cls-1" d="M392.07,167.34a6.37,6.37,0,0,1,6.71,6.47c.18,4.1-2.61,7.18-6.51,7.21a7.29,7.29,0,0,1-7-7A7.2,7.2,0,0,1,392.07,167.34Z"/><path class="cls-1" d="M264.26,90.06a7.1,7.1,0,0,1-7,7c-3.33-.07-6.5-3.43-6.5-6.91a6.61,6.61,0,0,1,6.4-6.87A6.94,6.94,0,0,1,264.26,90.06Z"/><path class="cls-1" d="M293.93,35.65a6.85,6.85,0,0,1,13.69.2c-.08,4-2.94,6.51-7.2,6.39A6.3,6.3,0,0,1,293.93,35.65Z"/><path class="cls-1" d="M173.82,249.27a6.32,6.32,0,0,1-6.57,6.77,6.67,6.67,0,0,1-6.55-6.74c-.09-4,2.93-7.33,6.73-7S173.93,244.6,173.82,249.27Z"/><path class="cls-1" d="M73.73,294.38a6.61,6.61,0,0,1-6.53,6.74c-3.65.14-7.22-3.25-7.14-6.8s3.26-6.85,6.61-6.95C70.21,287.27,73.64,290.68,73.73,294.38Z"/><path class="cls-1" d="M357.18,191.3c-4-.07-6.51-2.59-6.54-6.57a6.45,6.45,0,0,1,6.93-6.77,6.66,6.66,0,0,1,6.65,6.66C364.26,188.56,361.28,191.38,357.18,191.3Z"/><path class="cls-1" d="M147.91,260.11a6.91,6.91,0,0,1-7-7c0-3.34,3.41-6.79,6.72-6.86,3.47-.08,7,3.49,7,7.1C154.67,256.73,151.36,260,147.91,260.11Z"/><path class="cls-1" d="M274.84,164.23c0,4.22-2.81,7-6.85,6.75a6.57,6.57,0,0,1-6.25-7c.06-3.93,2.67-6.64,6.47-6.7C272.27,157.23,274.89,160,274.84,164.23Z"/><path class="cls-1" d="M144.52,270.16c3.85,0,6.27,2.57,6.32,6.71s-2.45,6.93-6.06,7.05a7,7,0,0,1-7.06-6.83A6.55,6.55,0,0,1,144.52,270.16Z"/><path class="cls-1" d="M289.77,294.31a6.37,6.37,0,0,1-6.84,6.8,7,7,0,0,1-6.67-6.69c-.07-3.48,3.54-7.08,7-7S289.71,290.74,289.77,294.31Z"/><path class="cls-1" d="M267.86,307.12c.09,3.91-2.42,6.73-6.19,6.94a6.5,6.5,0,0,1-6.9-6.8c0-4.1,2.13-6.55,6.22-6.93C264.87,300,267.75,303,267.86,307.12Z"/><path class="cls-1" d="M354.9,279.13c0-3.48,3.11-6.82,6.46-6.92A6.89,6.89,0,0,1,362,286,7.2,7.2,0,0,1,354.9,279.13Z"/><path class="cls-1" d="M74.64,246.21a6.52,6.52,0,0,1-6.81,6.92,6.85,6.85,0,0,1,.24-13.7C71.43,239.44,74.62,242.75,74.64,246.21Z"/><path class="cls-1" d="M343.22,319.13c-4,.08-6.49-2.35-6.64-6.37-.15-4.27,2.47-7.37,6.24-7.37a7.24,7.24,0,0,1,6.84,6.57C349.84,316.1,347.19,319.05,343.22,319.13Z"/><path class="cls-1" d="M241.73,246.8c.06,3.46-3.1,6.9-6.42,7s-7.16-3.59-7.21-7,3.16-6.57,6.67-6.7A6.41,6.41,0,0,1,241.73,246.8Z"/><path class="cls-1" d="M130.7,339.15a6.47,6.47,0,0,1-6.69,7c-3.47,0-6.86-3.16-6.92-6.5s3.49-7.16,6.9-7.2S130.62,335.71,130.7,339.15Z"/><path class="cls-1" d="M228.84,235.52a6.58,6.58,0,0,1-6.82,6.41c-4.16-.33-6.52-3.05-6.33-7.33a6.37,6.37,0,0,1,6.73-6.39A6.61,6.61,0,0,1,228.84,235.52Z"/><path class="cls-1" d="M226.54,269.24a6.44,6.44,0,0,1-6.69-6.47c-.08-4,2.75-6.67,6.92-6.73,4.42-.07,6.28,2.66,6.73,6.42S230.49,269.24,226.54,269.24Z"/><path class="cls-1" d="M201.68,241.21a6.42,6.42,0,0,1-6.61-6.61c0-3.54,3.59-7.14,7-7a7.19,7.19,0,0,1,6.6,6.89A6.54,6.54,0,0,1,201.68,241.21Z"/><path class="cls-1" d="M199.56,263.15a6.84,6.84,0,1,1-13.67-.34,7.07,7.07,0,0,1,6.72-6.61A7.16,7.16,0,0,1,199.56,263.15Z"/><path class="cls-1" d="M253.64,261.54a7.13,7.13,0,0,1-6.8,7.17,7.05,7.05,0,0,1-6.81-6.64,6.59,6.59,0,0,1,6.75-7A6.8,6.8,0,0,1,253.64,261.54Z"/><path class="cls-1" d="M344.68,255.29a6.75,6.75,0,0,1-7,6.81,7.07,7.07,0,0,1-6.61-6.77,7.23,7.23,0,0,1,7.09-6.93C341.46,248.46,344.7,251.89,344.68,255.29Z"/><path class="cls-1" d="M167.72,289.3a6.53,6.53,0,0,1-6.5,6.73c-3.93.06-6.67-2.83-6.6-7s3-7,6.85-6.77A6.8,6.8,0,0,1,167.72,289.3Z"/><path class="cls-1" d="M371.3,300.16a6.74,6.74,0,0,1-6.91,6.9c-4.1-.29-6.28-2.72-6.51-6.73-.21-3.6,3.32-7.08,6.87-7A7,7,0,0,1,371.3,300.16Z"/><path class="cls-1" d="M21.15,260.15c-3.58,0-7.18-3.44-7.15-6.92,0-3.14,3.61-6.83,6.71-6.9,3.52-.08,6.93,3.38,7,7.08A6.66,6.66,0,0,1,21.15,260.15Z"/><path class="cls-1" d="M260.87,177.22c-.07,3.88-2.75,6.69-6.41,6.74a6.75,6.75,0,0,1-6.74-7.07,6.44,6.44,0,0,1,6.55-6.65C258.27,170.22,261,173.05,260.87,177.22Z"/><path class="cls-1" d="M182.86,365.36c3.87.15,6.28,3.17,6,7.54-.23,4-3,6.55-6.83,6.15-4.1-.42-6.21-2.83-6.23-6.95A6.74,6.74,0,0,1,182.86,365.36Z"/><path class="cls-1" d="M156.78,374a6.59,6.59,0,0,1,6.41-6.86c3.66-.1,7.61,3.38,7.17,6.77-.49,3.71-2.42,6.62-6.55,7C160.27,381.25,156.77,377.68,156.78,374Z"/><path class="cls-1" d="M307.59,375a6.63,6.63,0,0,1,7,6.85c0,3.75-3.17,6.49-7.37,6.35a6.6,6.6,0,0,1,.41-13.2Z"/><path class="cls-1" d="M67.54,161.06a6.47,6.47,0,0,1-6.75-6.95c.08-3.46,3.38-6.73,6.72-6.67s7,3.82,7,7.18S71,161.09,67.54,161.06Z"/><path class="cls-1" d="M185.49,159.93c-3.68-.12-7.08-3.63-6.63-7.23.48-3.92,2.82-6.3,6.89-6.44,3.58-.12,6.8,3.46,6.72,7.2C192.41,156.8,188.9,160.05,185.49,159.93Z"/><path class="cls-1" d="M408.49,146.33c.09,3.66-3.12,7.21-6.63,7.35a6.94,6.94,0,0,1-6.94-7c0-3.83,2.61-6.44,6.58-6.54S408.41,142.72,408.49,146.33Z"/><path class="cls-1" d="M161.58,142a6.83,6.83,0,1,1,7-6.92A7.07,7.07,0,0,1,161.58,142Z"/><path class="cls-1" d="M248.66,122.63a7,7,0,0,1-6.83,7.1,7.12,7.12,0,0,1-6.85-6.59,7.29,7.29,0,0,1,6.93-7.07A6.77,6.77,0,0,1,248.66,122.63Z"/><path class="cls-1" d="M107.58,120.25a7.3,7.3,0,0,1-6.7,6.77c-3.46.09-7.06-3.6-6.93-7.11s3.49-6.83,6.74-6.77A7.43,7.43,0,0,1,107.58,120.25Z"/><path class="cls-1" d="M284.82,101.84c.05,4.19-2.66,7.14-6.56,7.16a6.5,6.5,0,0,1-6.56-6.65c-.11-4.08,2.72-7.13,6.6-7.11A6.34,6.34,0,0,1,284.82,101.84Z"/><path class="cls-1" d="M303.36,97.05a7.34,7.34,0,0,1-7,7c-3.21,0-6.52-3.55-6.57-6.94a6.77,6.77,0,0,1,6.91-7C300,90.25,303.3,93.62,303.36,97.05Z"/><path class="cls-1" d="M58.55,86.09a6.74,6.74,0,0,1,6.7,6.61c.17,3.57-3.31,7.27-6.76,7.19s-6.61-3.43-6.69-6.79A6.6,6.6,0,0,1,58.55,86.09Z"/><path class="cls-1" d="M144.56,90.1c-3.95-.08-6.68-2.72-6.71-6.47a7.21,7.21,0,0,1,7-7c3.47.09,7.05,3.84,6.65,7.31C151,87.84,148.87,90.28,144.56,90.1Z"/><path class="cls-1" d="M163.76,47.83c0,3.53-3.13,6.92-6.42,7s-7.14-3.71-7.21-7,3.33-6.65,6.71-6.73A6.39,6.39,0,0,1,163.76,47.83Z"/><path class="cls-1" d="M261.56,39c4,0,6.92,2.6,7,6.21.1,4.23-2.9,7.1-7.29,7A6.59,6.59,0,0,1,261.56,39Z"/><path class="cls-1" d="M319.65,18c4.07,0,7.06,2.86,7,6.7a6.85,6.85,0,0,1-6.85,6.49,6.66,6.66,0,0,1-6.91-6.86C313,20.62,315.73,18.05,319.65,18Z"/><path class="cls-1" d="M122.6,17c-.1,3.71-3.55,7.06-7.12,6.9A7.28,7.28,0,0,1,108.91,17a7.24,7.24,0,0,1,7.14-6.82A7.08,7.08,0,0,1,122.6,17Z"/><path class="cls-1" d="M135.07,16.81a6.88,6.88,0,0,1-6.84-6.56A7,7,0,0,1,135,3.13a6.62,6.62,0,0,1,6.76,7A7,7,0,0,1,135.07,16.81Z"/><path class="cls-1" d="M415,179.19a6.44,6.44,0,0,1,6.65,6.53c0,3.65-3.52,7.23-6.94,7.07S408,189.37,408,186A7.06,7.06,0,0,1,415,179.19Z"/><path class="cls-1" d="M238.17,206.33c4-.06,6.64,2.78,6.64,7a6.29,6.29,0,0,1-6.4,6.69,6.52,6.52,0,0,1-6.7-6.51C231.52,209.41,234.23,206.4,238.17,206.33Z"/><path class="cls-1" d="M342.31,204.09a6.52,6.52,0,0,1-6.57-6.65c-.1-4.17,2.66-7.05,6.69-7a7.3,7.3,0,0,1,6.84,6.6A7.11,7.11,0,0,1,342.31,204.09Z"/><path class="cls-1" d="M67.22,179.32A6.58,6.58,0,0,1,73.81,186c.12,4.09-2.67,7.06-6.63,7a6.19,6.19,0,0,1-6.51-6.54C60.62,182.27,63.31,179.33,67.22,179.32Z"/><path class="cls-1" d="M73.67,213.68a6.5,6.5,0,0,1-6.73,6.48c-4.11.08-7.13-2.76-7-6.65s3.15-6.59,7.25-6.51A6.56,6.56,0,0,1,73.67,213.68Z"/><path class="cls-1" d="M376.36,178.19c3.84.13,6.6,3.34,6.37,7.41a6.56,6.56,0,0,1-6.88,6.41c-3.86-.06-6.43-3.11-6.22-7.39A6.51,6.51,0,0,1,376.36,178.19Z"/><path class="cls-1" d="M237.46,196.92c-.13,3.55-3.87,7.15-7.26,6.67-3.94-.56-6.27-2.94-6.35-7a6.65,6.65,0,0,1,7.24-6.52A6.56,6.56,0,0,1,237.46,196.92Z"/><path class="cls-1" d="M147.34,191.06a6.85,6.85,0,0,1,0-13.7c3.77-.11,6.39,2.54,6.47,6.57C153.92,188.19,151.34,191,147.34,191.06Z"/><path class="cls-1" d="M122.94,273.42a7.39,7.39,0,0,1,6.69,6.8,7.31,7.31,0,0,1-7,6.88c-3.55-.09-6.94-3.75-6.69-7.23A7.36,7.36,0,0,1,122.94,273.42Z"/><path class="cls-1" d="M220.55,289.13a7,7,0,0,1-6.73-6.64c-.06-3.6,3.36-7.2,6.84-7.19s6.91,3.7,6.82,7.25C227.4,285.82,224,289.09,220.55,289.13Z"/><path class="cls-1" d="M343.73,270a6.52,6.52,0,0,1,6.78,6.94c0,3.63-3,6.28-6.89,6.24a6.59,6.59,0,1,1,.11-13.18Z"/><path class="cls-1" d="M219.83,88.17c4.15-.07,6.89,2.6,6.92,6.73,0,3.42-3.19,6.85-6.46,6.91s-7.1-3.62-7.17-7S216.38,88.23,219.83,88.17Z"/><path class="cls-1" d="M389.48,123.14a7,7,0,0,1,6.87,7,6.6,6.6,0,0,1-6.71,6.55,6.78,6.78,0,0,1-.16-13.56Z"/><path class="cls-1" d="M268.74,83.9a6.5,6.5,0,0,1,6.38-6.8A6.61,6.61,0,0,1,281.89,84c0,3.9-2.7,6.9-6.25,6.92A7.25,7.25,0,0,1,268.74,83.9Z"/><path class="cls-1" d="M140.19,95.27c3.27.09,6.52,3.6,6.46,7s-3.36,6.79-6.66,6.77a6.89,6.89,0,1,1,.2-13.76Z"/><path class="cls-1" d="M221.82,138.88a6.71,6.71,0,0,1,6.44-6.83,6.89,6.89,0,0,1,7.26,6.61c0,3.2-3.29,6.78-6.54,7C225.41,145.92,221.91,142.6,221.82,138.88Z"/><path class="cls-1" d="M127.91,134.58c3.45.1,6.72,3.41,6.69,6.75a7.16,7.16,0,0,1-7.12,6.77,6.58,6.58,0,0,1-6.61-7.13A7.22,7.22,0,0,1,127.91,134.58Z"/><path class="cls-1" d="M279.65,65.61a6.4,6.4,0,0,1-6.46,6.65c-4.18.07-7-2.49-7.13-6.57-.16-3.78,2.9-6.64,7.06-6.6A6.24,6.24,0,0,1,279.65,65.61Z"/><path class="cls-1" d="M269.41,378.1a6.68,6.68,0,0,1-6.65-6.64c-.13-3.65,3.27-7.18,6.82-7.07,3.37.1,7,3.9,6.88,7.23S272.82,378.08,269.41,378.1Z"/><path class="cls-1" d="M295.76,168.34a6.63,6.63,0,0,1-7,6.78,7.13,7.13,0,0,1-6.62-6.78,6.73,6.73,0,0,1,7.05-6.72A6.63,6.63,0,0,1,295.76,168.34Z"/><path class="cls-1" d="M314.82,358.65c.09,4.19-2.62,7.19-6.53,7.23s-6.42-2.61-6.6-6.61,2.48-7.08,6.49-7.12A6.38,6.38,0,0,1,314.82,358.65Z"/><path class="cls-1" d="M170.62,179.37a7.43,7.43,0,0,1,7,6.54c.21,3.51-3.17,7.09-6.76,7.15a7.25,7.25,0,0,1-7-6.95A7.36,7.36,0,0,1,170.62,179.37Z"/><path class="cls-1" d="M142.87,31.26c.09,4-2.41,6.75-6.2,6.85-4.17.1-6.89-2.55-7-6.65-.08-4.33,2.51-6.39,6.28-7S142.78,27.1,142.87,31.26Z"/><path class="cls-1" d="M217.83,45.48a6.68,6.68,0,0,1-7.31,6.45c-3.63-.41-6.2-3.91-5.79-8s3.14-5.69,6.79-5.77C215.43,38.11,218.1,41.4,217.83,45.48Z"/><path class="cls-1" d="M97.13,156.32a6.8,6.8,0,0,1,6.68,6.61c.15,4.08-2.63,7.13-6.53,7.16a6.43,6.43,0,0,1-6.63-6.51C90.57,159.44,93.3,156.38,97.13,156.32Z"/><path class="cls-1" d="M374.85,165.88c0,4.19-2.78,7.23-6.73,6.85s-6.41-2.41-6.41-6.73c0-4.07,2.39-6.74,6.19-6.81A6.47,6.47,0,0,1,374.85,165.88Z"/><path class="cls-1" d="M312.59,227.14a6.56,6.56,0,0,1-6.81-6.89c.08-4.28,2.77-6.2,6.61-6.6,3.5-.37,7.07,3.34,6.94,6.86A7.11,7.11,0,0,1,312.59,227.14Z"/><path class="cls-1" d="M284.75,216.53a6.46,6.46,0,0,1-7.08,6.57,6.84,6.84,0,0,1-6.45-6.83c0-3.44,3.81-7,7.23-6.8A7.15,7.15,0,0,1,284.75,216.53Z"/><path class="cls-1" d="M54.84,284.46c.23,4.23-2.62,6-6.42,6.3-3.5.32-6.85-3.47-6.69-7.09a6.61,6.61,0,0,1,7.19-6.51C52.67,277.35,54.93,280,54.84,284.46Z"/><path class="cls-1" d="M132.9,302.6c-.06,3.94-2.7,6.59-6.51,6.52-4.14-.08-6.79-2.86-6.64-7,.14-3.66,3.64-7,7.1-6.8S133,298.78,132.9,302.6Z"/><path class="cls-1" d="M188.07,204.22c-4.47,0-7.32-2.7-7.23-6.64a6.43,6.43,0,0,1,6.62-6.52c3.69,0,7.38,3.37,7,6.83C194,201.63,192.3,204.57,188.07,204.22Z"/><path class="cls-1" d="M139.68,296.64c0-4,2.57-6.53,6.45-6.56a6.34,6.34,0,0,1,6.68,6.89c-.1,3.53-3.22,6.78-6.54,6.82C142.5,303.83,139.64,300.72,139.68,296.64Z"/><path class="cls-1" d="M299.88,79.37c0,4.1-2,6.54-6.19,6.73a6.47,6.47,0,0,1-6.93-6.74,7.18,7.18,0,0,1,6.46-6.9C297.23,72.33,299.87,75.06,299.88,79.37Z"/><path class="cls-1" d="M64.47,81.77a6.35,6.35,0,0,1-6.77-6.35,6.63,6.63,0,0,1,6.42-7.27,6.41,6.41,0,0,1,6.73,6.39C71,78.82,68.52,81.63,64.47,81.77Z"/><path class="cls-1" d="M137.26,45.13a7.09,7.09,0,0,1,7,6.89,7.41,7.41,0,0,1-6.66,6.78,7,7,0,0,1-6.88-6.95A6.6,6.6,0,0,1,137.26,45.13Z"/><path class="cls-1" d="M202.71,60.83c-.1,3.75-3.54,7-7.11,6.83-3.1-.19-6.63-4-6.59-7,0-3.49,3.61-6.68,7.35-6.56A6.47,6.47,0,0,1,202.71,60.83Z"/><path class="cls-1" d="M230.69,179.93c-.06-4.05,2.68-6.74,6.84-6.72,3.83,0,6.28,2.65,6.31,6.67,0,4.29-2.54,6.36-6.32,6.9C233.9,187.29,230.74,183.89,230.69,179.93Z"/><path class="cls-1" d="M212.75,177.94a6.5,6.5,0,0,1,7-6.69,6.7,6.7,0,0,1,6.11,7.12,6.8,6.8,0,0,1-6.57,6.74C215.51,185.11,212.65,182,212.75,177.94Z"/><path class="cls-1" d="M350.8,171.43c-.07,4.14-2.86,6.9-6.89,6.67-4.19-.25-6.22-2.65-6.24-6.75s2.81-7,6.77-6.85A7,7,0,0,1,350.8,171.43Z"/><path class="cls-1" d="M212.68,374c0-4.11,2.89-6.95,6.81-6.78a6.62,6.62,0,0,1,6.31,6.91c0,3.56-3.54,7-7,6.89S212.64,377.89,212.68,374Z"/><path class="cls-1" d="M176.77,330.9a7.06,7.06,0,0,1-6.4,6.93,7.41,7.41,0,0,1-7.13-6.84,7.06,7.06,0,0,1,7.09-6.81A6.45,6.45,0,0,1,176.77,330.9Z"/><path class="cls-1" d="M36.6,168.07c-5,.06-7.82-2.68-7.82-6.73a7.21,7.21,0,0,1,6.47-6.89c3.92-.13,6.65,2.73,6.65,6.91S39.81,167.73,36.6,168.07Z"/><path class="cls-1" d="M303.35,258.94a7.19,7.19,0,0,1-6.83,7.13c-3.26,0-6.61-3.29-6.74-6.68a7.3,7.3,0,0,1,6.81-7.14A7.2,7.2,0,0,1,303.35,258.94Z"/><path class="cls-1" d="M391.72,155.74c0,4-2.89,6.59-7.11,6.47a6.59,6.59,0,1,1,.67-13.14A6.4,6.4,0,0,1,391.72,155.74Z"/><path class="cls-1" d="M367.71,259c.05,3.38-3.1,6.87-6.36,7a6.93,6.93,0,0,1-.79-13.83C364.05,252.06,367.66,255.49,367.71,259Z"/><path class="cls-1" d="M361.71,152.49a6.48,6.48,0,0,1-6.36,6.78c-4.2.13-7.22-2.5-7.33-6.39a6.76,6.76,0,0,1,7-6.77A6.39,6.39,0,0,1,361.71,152.49Z"/><path class="cls-1" d="M296.92,195.23a6.75,6.75,0,0,1-7.08-6.7c0-3.72,2.73-6.35,6.59-6.53,4.25-.19,6.55,2,7.09,6C304,191.43,300.42,195.14,296.92,195.23Z"/><path class="cls-1" d="M387.33,242.05a6.59,6.59,0,0,1-6.58-7.1c.11-4.31,2.92-6.15,6.64-6.6s6.5,3,6.45,7.13A6.36,6.36,0,0,1,387.33,242.05Z"/><path class="cls-1" d="M367.77,140.87a6.42,6.42,0,0,1,7-6.65c3.83.09,6.18,2.71,6.12,6.81s-2.69,6.89-6.25,6.88A7.17,7.17,0,0,1,367.77,140.87Z"/><path class="cls-1" d="M169.29,269.28c-.09,3.49-3.3,6.74-6.66,6.74s-6.9-3.55-6.81-7.11c.09-3.38,3.38-6.71,6.65-6.72A7.11,7.11,0,0,1,169.29,269.28Z"/><path class="cls-1" d="M130.59,364.84a6.47,6.47,0,0,1-6.81,6.34,7.07,7.07,0,0,1-6.77-7.05c.08-3.66,2.94-6.21,6.89-6.16A6.39,6.39,0,0,1,130.59,364.84Z"/><path class="cls-1" d="M13.67,193.62c0,3.93-3,6.7-7.08,6.58A6.4,6.4,0,0,1,0,193.59c0-3.9,3-6.66,7.14-6.58A6.42,6.42,0,0,1,13.67,193.62Z"/><path class="cls-1" d="M203.76,336.51c0,4-2.48,6.57-6.37,6.66-4.1.09-6.8-2.62-6.79-6.77s2.59-6.35,6.38-6.89C200.38,329,203.75,332.75,203.76,336.51Z"/><path class="cls-1" d="M198.27,110a6.79,6.79,0,0,1,7.24,6.54c.08,3.73-2.6,6.43-6.55,6.61s-7.07-2.53-7.12-6.47A6.44,6.44,0,0,1,198.27,110Z"/><path class="cls-1" d="M198.19,357.17a6.51,6.51,0,0,1,6.57,7.1c-.1,3.67-3.63,7.17-7.15,6.59-3.88-.63-6.06-3.11-6-7.23C191.71,359.67,194.37,357.07,198.19,357.17Z"/><path class="cls-1" d="M98.83,105.27a6.54,6.54,0,0,1-6.77-6.45C92,94.87,94.82,92.05,99,92a6.44,6.44,0,0,1,6.71,6.89A6.59,6.59,0,0,1,98.83,105.27Z"/><path class="cls-1" d="M275.88,391.46c0,3.91-2.65,6.67-6.37,6.68a6.37,6.37,0,0,1-6.79-6.8c.08-4.21,2.68-6.35,6.43-6.86C272.69,384,275.89,387.59,275.88,391.46Z"/><path class="cls-1" d="M243.69,317.19c.06,4.1-2.79,7.1-6.83,6.93s-6.1-2.29-6.25-6.31c-.15-4.35,2.41-7.3,6.39-7.36C240.38,310.4,243.64,313.68,243.69,317.19Z"/><path class="cls-1" d="M130.71,327.24c-4.16,0-7-2.68-6.92-6.64a6.56,6.56,0,0,1,6.68-6.5,7.3,7.3,0,0,1,7.05,6.84C137.5,324.36,134.41,327.21,130.71,327.24Z"/><path class="cls-1" d="M151.4,221.27a6.48,6.48,0,0,1-6.62-6.64,6.3,6.3,0,0,1,6.63-6.51c4.08,0,7.19,3,7,6.78A6.74,6.74,0,0,1,151.4,221.27Z"/><path class="cls-1" d="M219.53,223.12c-4.15.06-6.89-2.66-6.72-6.88.16-4,2.37-6.08,6.32-6.25a6.79,6.79,0,0,1,7.28,6.61C226.41,220,223.12,223.06,219.53,223.12Z"/><path class="cls-1" d="M323.72,95.62c0,3.46-3,7-6.26,7.17a6.74,6.74,0,0,1-6.87-6.8c-.07-4.25,2.5-6.95,6.58-6.93A6.38,6.38,0,0,1,323.72,95.62Z"/><path class="cls-1" d="M195.92,134.7c0,3.69-3.44,7.53-6.77,7-3.75-.55-6.33-2.7-6.38-6.92s2.59-6.85,6.76-6.76C193.4,128.15,195.92,130.77,195.92,134.7Z"/><path class="cls-1" d="M353.85,53.46c0,4-2.51,6.66-6.42,6.74a6.22,6.22,0,0,1-6.71-6.43c-.1-3.82,3.13-7.37,6.65-7.3C350.71,46.53,353.82,49.89,353.85,53.46Z"/><path class="cls-1" d="M418.29,227.17c-.07,3.78-3.13,6.88-6.6,6.68A7.1,7.1,0,0,1,405,227a7.32,7.32,0,0,1,7.19-6.89C415.93,220.22,418.37,223.05,418.29,227.17Z"/><path class="cls-1" d="M257.77,196.18a6.52,6.52,0,0,1-6.41,6.87,6.33,6.33,0,0,1-6.75-6.42c-.1-3.89,2.57-7.1,6.07-7.29A6.92,6.92,0,0,1,257.77,196.18Z"/><path class="cls-1" d="M83.19,35.1a6.7,6.7,0,0,1,6.61,7.24c-.18,3.46-3.67,6.84-7,6.41-4-.52-6.25-2.81-6.17-7.06C76.73,37.73,79.42,35,83.19,35.1Z"/><path class="cls-1" d="M329.51,191.21c-4.08,0-6.91-2.89-6.73-6.8a6.44,6.44,0,0,1,6.77-6.35c3.43.06,6.82,3.22,6.92,6.48A6.69,6.69,0,0,1,329.51,191.21Z"/><path class="cls-1" d="M315.29,144.21a6.16,6.16,0,0,1-6.57-6.46c-.07-3.73,3.14-7.34,6.55-7.35s6.69,3.66,6.6,7.31A6.28,6.28,0,0,1,315.29,144.21Z"/><path class="cls-1" d="M134.19,238.26a6.78,6.78,0,0,1-7.08-6.78c.11-3.34,3.49-6.45,7-6.45,3.8,0,6.47,2.7,6.57,6.64S138.2,238.22,134.19,238.26Z"/><path class="cls-1" d="M160.89,233.63a6.27,6.27,0,0,1-6.51,6.29c-3.24,0-6.57-3.45-6.63-6.8-.06-3.93,3-7.28,6.72-7S160.93,228.48,160.89,233.63Z"/><path class="cls-1" d="M97.42,21.08c4.7,0,7.27,2.46,7.37,6.4.09,3.76-3.06,7.3-6.52,7.32s-6.69-3.52-6.6-7.25C91.77,23.32,94.16,21.36,97.42,21.08Z"/><path class="cls-1" d="M18.84,234.76a6.15,6.15,0,0,1-6.57,6.44c-4.09,0-6.73-2.79-6.58-6.94.13-3.46,3.38-6.83,6.58-6.83C15.7,227.44,18.91,231,18.84,234.76Z"/><path class="cls-1" d="M78.83,57.64c0,4-2.55,6.49-6.59,6.49s-6.5-2.47-6.52-6.54c0-3.8,3.36-7.32,6.82-7.12S78.88,54.1,78.83,57.64Z"/><path class="cls-1" d="M191.87,81.36a6.54,6.54,0,0,1-6.51,6.76,6.67,6.67,0,0,1-6.6-6.75c-.08-3.6,3.41-7.19,6.91-7.12S191.89,77.37,191.87,81.36Z"/><path class="cls-1" d="M331.78,300.41c-.14,3-2,5.51-6.24,5.76s-6.87-2.34-6.87-6.55c0-3.76,3.26-7.27,6.67-7.16C328.54,292.56,331.71,296,331.78,300.41Z"/><path class="cls-1" d="M345.1,288.15a6.63,6.63,0,0,1,6.66,7.16c-.15,3.51-3.52,6.7-6.92,6.54-3.77-.18-6.26-3-6.23-7.06S341.28,288.07,345.1,288.15Z"/><path class="cls-1" d="M207.72,281.41a6.52,6.52,0,0,1-7.05,6.72,6.89,6.89,0,0,1-6.44-6.95c.08-3.36,3.63-6.75,6.92-6.62A6.94,6.94,0,0,1,207.72,281.41Z"/><path class="cls-1" d="M104.73,84.27c-4.07,0-6.71-2.67-6.53-6.51a7,7,0,0,1,6.8-6.64,6.58,6.58,0,0,1,6.71,7.09C111.59,82.14,109.08,84.31,104.73,84.27Z"/><path class="cls-1" d="M151.72,149.88a6.4,6.4,0,0,1-6.82,6.4,6.93,6.93,0,0,1-6.84-6.59c0-3.77,3.17-6.63,7.29-6.55A6.29,6.29,0,0,1,151.72,149.88Z"/><path class="cls-1" d="M202.18,168.1c-3.87-.08-6.39-2.74-6.38-6.74,0-3.44,3.31-6.89,6.57-6.88,3.8,0,6.64,3.2,6.52,7.31S206.29,168.19,202.18,168.1Z"/><path class="cls-1" d="M339.57,75c4.14,0,7.05,2.76,6.92,6.66-.1,3.28-3.53,6.61-6.87,6.51-4.08-.13-6.44-2.37-6.79-6.39S335.42,75,339.57,75Z"/><path class="cls-1" d="M261.51,13.21c-4.29,0-6.31-2.49-6.66-6.39S257.59,0,261.57,0c4.31,0,6.31,2.62,6.8,6.4S265.44,13.18,261.51,13.21Z"/><path class="cls-1" d="M247.76,8.7c.09,3.47-3,7-6.37,7.11s-6.58-3-6.76-6.64c-.21-4.26,2.38-7.06,6.54-7.07C245,2.1,247.67,4.74,247.76,8.7Z"/><path class="cls-1" d="M133.8,175.27c-4.22,0-6.94-2.61-6.86-6.61a6.81,6.81,0,0,1,13.61-.11C140.69,172.54,138,175.25,133.8,175.27Z"/><path class="cls-1" d="M359.78,240c-.08,3.5-3.32,6.81-6.65,6.82-4,0-6.59-3-6.45-7.31a6.56,6.56,0,1,1,13.1.49Z"/><path class="cls-1" d="M300.21,54.09a6.38,6.38,0,0,1,6.59,7c-.13,3.47-3.4,6.82-6.6,6.78-3.65,0-6.61-3.35-6.54-7.29A6.24,6.24,0,0,1,300.21,54.09Z"/><path class="cls-1" d="M175.18,48.13a6.44,6.44,0,0,1,6.69,6.52c.09,4.24-2.68,7.31-6.56,7.28-3.31,0-6.55-3.44-6.55-6.91A6.6,6.6,0,0,1,175.18,48.13Z"/><path class="cls-1" d="M161.67,73.92c-.1-4,2.44-6.78,6.25-6.84a6.38,6.38,0,0,1,6.87,6.31c.15,3.74-3.1,7.43-6.53,7.44C165,80.83,161.76,77.43,161.67,73.92Z"/><path class="cls-1" d="M355.13,217.23c-4-.08-6.54-2.72-6.38-6.65s2.82-6.54,6.68-6.5a7.07,7.07,0,0,1,6.86,7.06C362.12,214.76,359.12,217.31,355.13,217.23Z"/><path class="cls-1" d="M52.81,145.12a7.05,7.05,0,0,1-6.87,6.57c-3.47-.06-6.51-3.77-6.24-7.61A6.26,6.26,0,0,1,46.76,138C50.57,138.29,53,141.14,52.81,145.12Z"/><path class="cls-1" d="M154.12.14a6.42,6.42,0,0,1,6.71,6.47c.1,4.33-2.53,7.23-6.52,7.21A7.08,7.08,0,0,1,147.7,7,6.62,6.62,0,0,1,154.12.14Z"/><path class="cls-1" d="M206.71,301.37a6.39,6.39,0,0,1-6.31,6.87,6.84,6.84,0,0,1-7.32-6.57c0-3.34,3.26-6.53,6.81-6.62A6.26,6.26,0,0,1,206.71,301.37Z"/><path class="cls-1" d="M84.37,326.09A6.52,6.52,0,0,1,77.74,319a6.8,6.8,0,0,1,7-6.39c3.77.05,6.21,2.81,6.17,7S88.28,326.17,84.37,326.09Z"/><path class="cls-1" d="M282.16,269.08a6.6,6.6,0,0,1-.09,13.2,6.81,6.81,0,0,1-7-6.87C275.23,272,278.57,269.05,282.16,269.08Z"/><path class="cls-1" d="M180.23,269.12a7,7,0,0,1,7.06,6.85c0,3.61-3,6.33-6.91,6.33s-6.69-2.65-6.63-6.46A6.43,6.43,0,0,1,180.23,269.12Z"/><path class="cls-1" d="M67.89,269.3c.07,4.08-2.4,6.82-6.21,6.88a6.58,6.58,0,0,1-6.9-6.89,6.86,6.86,0,0,1,6.68-6.7C65.28,262.49,67.81,265.14,67.89,269.3Z"/><path class="cls-1" d="M59.64,117.27a6.48,6.48,0,0,1-6.84-6.39,6.34,6.34,0,0,1,6.36-6.77c4.09-.12,7.3,2.74,7.31,6.51C66.48,113.88,63.07,117.2,59.64,117.27Z"/><path class="cls-1" d="M274.18,324.19a6.48,6.48,0,0,1,6.62,6.63,6.68,6.68,0,0,1-6.8,7c-3.78-.1-6.37-2.93-6.32-6.9A6.48,6.48,0,0,1,274.18,324.19Z"/><path class="cls-1" d="M204.6,33.16a6.64,6.64,0,0,1-6.83-6.94c.07-3.81,2.8-6.29,6.84-6.21a6.66,6.66,0,0,1,6.79,6.5C211.43,29.78,208,33.14,204.6,33.16Z"/><path class="cls-1" d="M167.67,229.67a6.5,6.5,0,0,1,6.65-6.6,6.3,6.3,0,0,1,6.51,6.63c0,3.94-2.69,7-6.27,7A7,7,0,0,1,167.67,229.67Z"/><path class="cls-1" d="M351.91,333a6.6,6.6,0,1,1,.37,13.2c-3.73.09-7.35-3.23-7.27-6.68A6.92,6.92,0,0,1,351.91,333Z"/><path class="cls-1" d="M84.83,228.31c.09,4.1-2.28,6.69-6.25,6.83s-6.86-2.64-6.87-6.81c0-3.46,3.25-6.89,6.56-6.89S84.76,224.72,84.83,228.31Z"/><path class="cls-1" d="M259.43,117.29a6.37,6.37,0,0,1-6.66-6.53,6.29,6.29,0,0,1,6.5-6.64c3.83,0,7.29,3.25,7.14,6.77A6.8,6.8,0,0,1,259.43,117.29Z"/><path class="cls-1" d="M341.21,217.12a6.64,6.64,0,0,1,6.59,7.22c-.18,3.77-2.94,6.07-7.11,5.95a6.38,6.38,0,0,1-6.4-6.71A6.9,6.9,0,0,1,341.21,217.12Z"/><path class="cls-1" d="M80.05,117.15c3.49.23,6.66,3.7,6.38,7-.32,3.86-3.59,6.47-7.68,6.15a6.52,6.52,0,0,1-5.93-7.23C73.2,119.24,76.08,116.89,80.05,117.15Z"/><path class="cls-1" d="M106.63,133.12c4,.09,6.31,2.58,6.27,6.73,0,4.41-2.05,6.44-6.37,6.43-4.11,0-6.69-2.45-6.7-6.32C99.81,135.76,102.52,133,106.63,133.12Z"/><path class="cls-1" d="M79.36,79a6.94,6.94,0,0,1,7,6.93c-.07,3.65-3,6.35-7,6.32a6.48,6.48,0,0,1-6.57-6.64A6.41,6.41,0,0,1,79.36,79Z"/><path class="cls-1" d="M348.59,105.92c-.11-4,2.39-6.74,6.23-6.89a6.48,6.48,0,0,1,6.94,6.27c.18,3.67-3.17,7.5-6.57,7.52C352,112.83,348.69,109.41,348.59,105.92Z"/><path class="cls-1" d="M337.32,105.24A6.6,6.6,0,0,1,330.75,98c.17-3.4,3.72-6.79,6.89-6.56,3.33.23,6.3,3.66,6.25,7.2C343.83,102.59,341.08,105.34,337.32,105.24Z"/><path class="cls-1" d="M307.71,116.88a6.31,6.31,0,0,1-6.81,6.31c-3.55-.07-6.86-3.25-6.86-6.55,0-3.49,3.62-6.74,7.34-6.61A6.42,6.42,0,0,1,307.71,116.88Z"/><path class="cls-1" d="M210.85,82.22a6.55,6.55,0,0,1-7-6.18,6.43,6.43,0,0,1,6.65-7c3.53,0,6.87,3.07,7,6.43A6.83,6.83,0,0,1,210.85,82.22Z"/><path class="cls-1" d="M155.17,174.08c-3.92.09-6.5-2.45-6.57-6.47s2.63-7,6.2-7.06a6.9,6.9,0,0,1,7,6.42A6.46,6.46,0,0,1,155.17,174.08Z"/><path class="cls-1" d="M224.49,68.26c-4.25-.2-6.09-2.36-5.84-6.86.22-4,3-6.5,6.79-6.26a6.57,6.57,0,0,1,6.3,7.42C231.23,66.74,228.63,68.55,224.49,68.26Z"/><path class="cls-1" d="M273.25,188.25c-2.93-.07-4.76-2.11-4.61-6.64.14-4.11,2.68-6.61,6.58-6.47a6.53,6.53,0,0,1,6.51,7.24C281.35,186.6,278.8,188.46,273.25,188.25Z"/><path class="cls-1" d="M100.67,46.16c3.67.1,6.28,3,6.18,7-.08,3.4-3.49,6.79-6.74,6.69-3.55-.1-6.57-3.64-6.38-7.48S96.66,46.06,100.67,46.16Z"/><path class="cls-1" d="M346.73,356.33c0,4.17-2.76,7-6.79,6.88-3.88-.09-6.34-2.73-6.31-6.77,0-4.38,2.09-6.46,6.39-6.45C344.13,350,346.71,352.44,346.73,356.33Z"/><path class="cls-1" d="M310.7,48.85c.26-3.46,3.82-6.7,7-6.38,3.55.36,6.45,4.06,6.08,7.82-.4,4.06-3.06,5.77-6.77,5.84C313,56.21,310.39,53,310.7,48.85Z"/><path class="cls-1" d="M112.19,218.11c4-.08,6.58,2.33,6.72,6.33s-2.41,7-6,7.22a7,7,0,0,1-7.09-6.85A6.27,6.27,0,0,1,112.19,218.11Z"/><path class="cls-1" d="M368.64,233.19a6.26,6.26,0,0,1-6.8-6.3,6.41,6.41,0,0,1,6.28-6.87c3.73-.14,7.31,3.08,7.32,6.59C375.46,229.92,372.16,233.1,368.64,233.19Z"/><path class="cls-1" d="M248.76,48.76c0,3.93-2.61,6.42-6.59,6.44-4.23,0-6.68-2.6-6.5-7,.16-4,2.77-6.35,6.76-6.22S248.82,44.81,248.76,48.76Z"/><path class="cls-1" d="M261.32,32.26c-4.06,0-6.57-2.4-6.63-6.37-.06-4.18,2.66-6.91,6.77-6.82,3.85.09,6.37,2.74,6.35,6.71S265.37,32.24,261.32,32.26Z"/><path class="cls-1" d="M288.71,8.45a6.49,6.49,0,0,1-6.46,6.77,6.88,6.88,0,0,1-7-6.8c0-3.63,2.87-6.36,6.81-6.38A6.29,6.29,0,0,1,288.71,8.45Z"/><path class="cls-1" d="M157.69,334c0,3.82-2.76,6.34-6.75,6.27s-6.38-2.4-6.35-6.58,2.49-6.6,6.4-6.63S157.73,329.78,157.69,334Z"/><path class="cls-1" d="M304.1,342.17c-3.91,0-6.47-2.59-6.5-6.56,0-4.16,2.24-6.55,6.31-6.65s6.74,2.38,6.84,6.21C310.86,339.31,308.14,342.17,304.1,342.17Z"/><path class="cls-1" d="M312.79,240.83a6.17,6.17,0,0,1-6.62,6.43c-4,0-6.71-3-6.51-7.08.2-3.89,2.85-6.23,6.91-6.1S312.88,236.73,312.79,240.83Z"/><path class="cls-1" d="M130.38,255.08a6.43,6.43,0,0,1,6.51,6.7c0,3.7-3.48,7.25-6.9,7.05s-6.36-3.65-6.25-7.15A6.5,6.5,0,0,1,130.38,255.08Z"/><path class="cls-1" d="M81.7,345.48c0,4.16-2.77,6.88-6.84,6.77-3.9-.1-6.34-2.72-6.27-6.76S71,339,75.1,339,81.73,341.62,81.7,345.48Z"/><path class="cls-1" d="M267.32,357.21a6.19,6.19,0,0,1-6.62-6.45c-.09-4,2.34-6.63,6.27-6.76,4.24-.15,6.9,2.44,6.86,6.65A6.2,6.2,0,0,1,267.32,357.21Z"/><path class="cls-1" d="M175.29,205c4,0,6.48,2.52,6.5,6.52,0,4.16-2.72,6.85-6.85,6.7-3.84-.14-6.33-2.84-6.26-6.8A6.13,6.13,0,0,1,175.29,205Z"/><path class="cls-1" d="M127.81,185c4.19-.08,6.81,2.19,6.95,6a6.59,6.59,0,0,1-6.59,7.15c-3.76.1-6.43-2.6-6.5-6.55C121.59,187.19,123.55,185.06,127.81,185Z"/><path class="cls-1" d="M199,188.22c-4-.11-6.35-2.66-6.3-6.72.05-4.22,2.71-6.64,7.05-6.42,3.92.21,6.27,2.88,6.09,6.93C205.69,185.9,203,188.33,199,188.22Z"/><path class="cls-1" d="M117.8,178.72c0,4-2.52,6.53-6.49,6.57s-6.58-2.47-6.67-6.4c-.1-4.23,2.5-6.83,6.75-6.76C115.41,172.19,117.81,174.66,117.8,178.72Z"/><path class="cls-1" d="M331.78,370.8c.05,3.87-2.54,6.39-6.59,6.42-4.23,0-6.47-2.13-6.51-6.34s2-6.56,6.19-6.8C328.86,363.84,331.73,366.7,331.78,370.8Z"/><path class="cls-1" d="M416.81,165.78c-.09,4-2.65,6.49-6.58,6.48s-6.73-2.86-6.55-7c.18-4,2.74-6.25,6.86-6.14S416.9,161.72,416.81,165.78Z"/><path class="cls-1" d="M324.88,155.05a6.47,6.47,0,0,1,6.94,6.74c0,4-2.52,6.4-6.56,6.43-4.23,0-6.49-2-6.56-6.31C318.64,157.89,321.11,155.14,324.88,155.05Z"/><path class="cls-1" d="M258.86,145.28c.11,4-2.33,6.66-6.22,6.84-4.25.19-6.93-2.35-6.93-6.59,0-4,2.42-6.51,6.44-6.57S258.75,141.33,258.86,145.28Z"/><path class="cls-1" d="M294.85,388.64c0,4-2.42,6.57-6.36,6.64s-6.63-2.28-6.76-6.24c-.13-4.24,2.45-7,6.62-6.94C292.3,382.12,294.81,384.64,294.85,388.64Z"/><path class="cls-1" d="M182.36,384c3.94,0,6.47,2.6,6.47,6.57s-2.46,6.58-6.41,6.64c-4.17.08-6.81-2.61-6.72-6.83C175.79,386.41,178.34,384,182.36,384Z"/><path class="cls-1" d="M336.19,149.22c-4,0-6.52-2.45-6.56-6.45-.05-4.19,2.65-6.83,6.85-6.7,3.94.12,6.36,2.71,6.3,6.73S340.24,149.23,336.19,149.22Z"/><path class="cls-1" d="M366.82,320.78a6.23,6.23,0,0,1-6.66,6.42c-4.08,0-6.68-2.88-6.47-7.08.2-3.91,2.86-6.28,6.89-6.14C364.45,314.12,366.92,316.81,366.82,320.78Z"/><path class="cls-1" d="M60.2,139.15c-4.11,0-6.47-2.31-6.52-6.41S56.11,126.11,60,126a6.32,6.32,0,0,1,6.83,6.74C66.73,136.71,64.24,139.13,60.2,139.15Z"/><path class="cls-1" d="M227.88,116.85c-.11,4-2.66,6.36-6.7,6.32s-6.44-2.56-6.44-6.57c0-4.17,2.73-6.77,6.93-6.59C225.54,110.18,228,112.88,227.88,116.85Z"/><path class="cls-1" d="M110.26,331.22a6.35,6.35,0,0,1-6.49-7.1c.24-3.91,2.39-6,6.37-6.07,4.24-.08,6.85,2.52,6.77,6.73A6.32,6.32,0,0,1,110.26,331.22Z"/><path class="cls-1" d="M279.37,306.09c3.91.06,6.63,3.09,6.44,7.18-.17,3.78-2.95,6.15-7,6s-6.29-2.76-6.14-6.82A6.2,6.2,0,0,1,279.37,306.09Z"/><path class="cls-1" d="M116.49,32.1a6.26,6.26,0,0,1,6.38,6.66c0,4-2.48,6.46-6.48,6.49s-6.58-2.32-6.66-6.29A6.42,6.42,0,0,1,116.49,32.1Z"/><path class="cls-1" d="M168.91,91.79c-.09,3.94-2.77,6.59-6.56,6.47s-6.62-2.84-6.55-6.56c.09-4.16,2.81-6.74,7-6.62S169,87.55,168.91,91.79Z"/><path class="cls-1" d="M242.15,107.24c-4,0-6.45-2.43-6.49-6.46s2.31-6.61,6.26-6.7a6.42,6.42,0,0,1,6.85,6.76C248.78,104.66,246.09,107.25,242.15,107.24Z"/><path class="cls-1" d="M330.75,344.85a6.3,6.3,0,0,1-6.69,6.39c-4.11,0-6.66-2.82-6.44-7,.21-3.87,2.91-6.3,6.85-6.16A6.34,6.34,0,0,1,330.75,344.85Z"/><path class="cls-1" d="M415.44,200c3.58.06,6.89,3.17,6.88,6.46a7,7,0,0,1-7.15,6.71,6.59,6.59,0,0,1,.27-13.17Z"/></g></g></g></svg>